<mxfile host="app.diagrams.net" modified="2024-07-04T03:00:36.548Z" agent="Mozilla/5.0 (Windows NT 10.0; Win64; x64) AppleWebKit/537.36 (KHTML, like Gecko) Chrome/126.0.0.0 Safari/537.36" etag="trpRJZz0IW7zcsIV6j7f" version="24.2.9" type="device">
  <diagram name="Page-1" id="v2gMt1AHVyVWbYfKUggT">
    <mxGraphModel dx="1235" dy="614" grid="1" gridSize="10" guides="1" tooltips="1" connect="1" arrows="1" fold="1" page="1" pageScale="1" pageWidth="1169" pageHeight="827" math="0" shadow="0">
      <root>
        <mxCell id="0" />
        <mxCell id="1" parent="0" />
        <mxCell id="EZnxqJEAYxb2AFgAl--C-1" value="HTML" style="whiteSpace=wrap;html=1;aspect=fixed;" vertex="1" parent="1">
          <mxGeometry x="80" y="230" width="50" height="50" as="geometry" />
        </mxCell>
        <mxCell id="EZnxqJEAYxb2AFgAl--C-2" value="Scraped Web SIte with BeautifulSoup" style="text;html=1;align=center;verticalAlign=middle;whiteSpace=wrap;rounded=0;" vertex="1" parent="1">
          <mxGeometry x="75" y="300" width="60" height="30" as="geometry" />
        </mxCell>
        <mxCell id="EZnxqJEAYxb2AFgAl--C-3" value="" style="endArrow=classic;html=1;rounded=0;exitX=1;exitY=0.5;exitDx=0;exitDy=0;" edge="1" parent="1" source="EZnxqJEAYxb2AFgAl--C-1">
          <mxGeometry width="50" height="50" relative="1" as="geometry">
            <mxPoint x="390" y="300" as="sourcePoint" />
            <mxPoint x="200" y="255" as="targetPoint" />
          </mxGeometry>
        </mxCell>
        <mxCell id="EZnxqJEAYxb2AFgAl--C-4" value="Text Chuncks of doucuments" style="rounded=0;whiteSpace=wrap;html=1;" vertex="1" parent="1">
          <mxGeometry x="200" y="230" width="120" height="60" as="geometry" />
        </mxCell>
        <mxCell id="EZnxqJEAYxb2AFgAl--C-5" value="Text Splitting&lt;div&gt;&lt;br&gt;&lt;/div&gt;" style="text;html=1;align=center;verticalAlign=middle;whiteSpace=wrap;rounded=0;" vertex="1" parent="1">
          <mxGeometry x="230" y="310" width="60" height="30" as="geometry" />
        </mxCell>
        <mxCell id="EZnxqJEAYxb2AFgAl--C-6" value="" style="endArrow=classic;html=1;rounded=0;exitX=1;exitY=0.5;exitDx=0;exitDy=0;" edge="1" parent="1" source="EZnxqJEAYxb2AFgAl--C-4">
          <mxGeometry width="50" height="50" relative="1" as="geometry">
            <mxPoint x="390" y="300" as="sourcePoint" />
            <mxPoint x="400" y="260" as="targetPoint" />
          </mxGeometry>
        </mxCell>
        <mxCell id="EZnxqJEAYxb2AFgAl--C-7" value="embeddings" style="rounded=0;whiteSpace=wrap;html=1;" vertex="1" parent="1">
          <mxGeometry x="400" y="240" width="120" height="40" as="geometry" />
        </mxCell>
        <mxCell id="EZnxqJEAYxb2AFgAl--C-8" value="&lt;div&gt;Vectorization&lt;/div&gt;" style="text;html=1;align=center;verticalAlign=middle;whiteSpace=wrap;rounded=0;" vertex="1" parent="1">
          <mxGeometry x="430" y="280" width="60" height="30" as="geometry" />
        </mxCell>
        <mxCell id="EZnxqJEAYxb2AFgAl--C-9" value="" style="endArrow=classic;html=1;rounded=0;exitX=1;exitY=0.5;exitDx=0;exitDy=0;" edge="1" parent="1" source="EZnxqJEAYxb2AFgAl--C-7">
          <mxGeometry width="50" height="50" relative="1" as="geometry">
            <mxPoint x="390" y="300" as="sourcePoint" />
            <mxPoint x="570" y="260" as="targetPoint" />
          </mxGeometry>
        </mxCell>
        <mxCell id="EZnxqJEAYxb2AFgAl--C-10" value="" style="strokeWidth=2;html=1;shape=mxgraph.flowchart.database;whiteSpace=wrap;" vertex="1" parent="1">
          <mxGeometry x="570" y="240" width="60" height="60" as="geometry" />
        </mxCell>
        <mxCell id="EZnxqJEAYxb2AFgAl--C-11" value="&lt;div&gt;vector database&lt;/div&gt;" style="text;html=1;align=center;verticalAlign=middle;whiteSpace=wrap;rounded=0;" vertex="1" parent="1">
          <mxGeometry x="570" y="310" width="60" height="30" as="geometry" />
        </mxCell>
        <mxCell id="EZnxqJEAYxb2AFgAl--C-12" value="" style="endArrow=classic;html=1;rounded=0;exitX=1;exitY=0.5;exitDx=0;exitDy=0;exitPerimeter=0;" edge="1" parent="1" source="EZnxqJEAYxb2AFgAl--C-10">
          <mxGeometry width="50" height="50" relative="1" as="geometry">
            <mxPoint x="390" y="300" as="sourcePoint" />
            <mxPoint x="690" y="270" as="targetPoint" />
          </mxGeometry>
        </mxCell>
        <mxCell id="EZnxqJEAYxb2AFgAl--C-13" value="results" style="rounded=0;whiteSpace=wrap;html=1;" vertex="1" parent="1">
          <mxGeometry x="690" y="250" width="120" height="40" as="geometry" />
        </mxCell>
        <mxCell id="EZnxqJEAYxb2AFgAl--C-14" value="search" style="rounded=0;whiteSpace=wrap;html=1;" vertex="1" parent="1">
          <mxGeometry x="690" y="374" width="120" height="40" as="geometry" />
        </mxCell>
        <mxCell id="EZnxqJEAYxb2AFgAl--C-15" value="question embedding" style="rounded=0;whiteSpace=wrap;html=1;" vertex="1" parent="1">
          <mxGeometry x="690" y="490" width="120" height="40" as="geometry" />
        </mxCell>
        <mxCell id="EZnxqJEAYxb2AFgAl--C-16" value="" style="endArrow=classic;html=1;rounded=0;exitX=0.5;exitY=0;exitDx=0;exitDy=0;entryX=0.5;entryY=1;entryDx=0;entryDy=0;" edge="1" parent="1" source="EZnxqJEAYxb2AFgAl--C-14" target="EZnxqJEAYxb2AFgAl--C-13">
          <mxGeometry width="50" height="50" relative="1" as="geometry">
            <mxPoint x="600" y="400" as="sourcePoint" />
            <mxPoint x="650" y="350" as="targetPoint" />
          </mxGeometry>
        </mxCell>
        <mxCell id="EZnxqJEAYxb2AFgAl--C-17" value="" style="endArrow=classic;html=1;rounded=0;entryX=0.5;entryY=1;entryDx=0;entryDy=0;" edge="1" parent="1">
          <mxGeometry width="50" height="50" relative="1" as="geometry">
            <mxPoint x="750" y="490" as="sourcePoint" />
            <mxPoint x="749.5" y="414" as="targetPoint" />
          </mxGeometry>
        </mxCell>
        <mxCell id="EZnxqJEAYxb2AFgAl--C-18" value="" style="shape=umlActor;verticalLabelPosition=bottom;verticalAlign=top;html=1;outlineConnect=0;" vertex="1" parent="1">
          <mxGeometry x="900" y="470" width="30" height="60" as="geometry" />
        </mxCell>
        <mxCell id="EZnxqJEAYxb2AFgAl--C-19" value="Questions asked from website" style="text;html=1;align=center;verticalAlign=middle;whiteSpace=wrap;rounded=0;" vertex="1" parent="1">
          <mxGeometry x="885" y="550" width="60" height="30" as="geometry" />
        </mxCell>
        <mxCell id="EZnxqJEAYxb2AFgAl--C-20" value="" style="endArrow=classic;html=1;rounded=0;exitX=0.5;exitY=0.5;exitDx=0;exitDy=0;exitPerimeter=0;entryX=1;entryY=0.25;entryDx=0;entryDy=0;" edge="1" parent="1" source="EZnxqJEAYxb2AFgAl--C-18" target="EZnxqJEAYxb2AFgAl--C-15">
          <mxGeometry width="50" height="50" relative="1" as="geometry">
            <mxPoint x="600" y="400" as="sourcePoint" />
            <mxPoint x="650" y="350" as="targetPoint" />
          </mxGeometry>
        </mxCell>
        <mxCell id="EZnxqJEAYxb2AFgAl--C-21" value="answers" style="rounded=0;whiteSpace=wrap;html=1;" vertex="1" parent="1">
          <mxGeometry x="900" y="360" width="120" height="40" as="geometry" />
        </mxCell>
        <mxCell id="EZnxqJEAYxb2AFgAl--C-23" value="" style="endArrow=classic;html=1;rounded=0;entryX=0.5;entryY=0;entryDx=0;entryDy=0;entryPerimeter=0;exitX=0.25;exitY=1;exitDx=0;exitDy=0;" edge="1" parent="1" source="EZnxqJEAYxb2AFgAl--C-21" target="EZnxqJEAYxb2AFgAl--C-18">
          <mxGeometry width="50" height="50" relative="1" as="geometry">
            <mxPoint x="910" y="400" as="sourcePoint" />
            <mxPoint x="960" y="350" as="targetPoint" />
          </mxGeometry>
        </mxCell>
        <mxCell id="EZnxqJEAYxb2AFgAl--C-24" value="Answers for user questionaries" style="text;html=1;align=center;verticalAlign=middle;whiteSpace=wrap;rounded=0;" vertex="1" parent="1">
          <mxGeometry x="1030" y="365" width="60" height="30" as="geometry" />
        </mxCell>
        <mxCell id="EZnxqJEAYxb2AFgAl--C-25" value="LLM" style="rounded=0;whiteSpace=wrap;html=1;" vertex="1" parent="1">
          <mxGeometry x="900" y="255" width="120" height="30" as="geometry" />
        </mxCell>
        <mxCell id="EZnxqJEAYxb2AFgAl--C-26" value="" style="endArrow=classic;html=1;rounded=0;exitX=0.5;exitY=1;exitDx=0;exitDy=0;entryX=0.5;entryY=0;entryDx=0;entryDy=0;" edge="1" parent="1" source="EZnxqJEAYxb2AFgAl--C-25" target="EZnxqJEAYxb2AFgAl--C-21">
          <mxGeometry width="50" height="50" relative="1" as="geometry">
            <mxPoint x="910" y="400" as="sourcePoint" />
            <mxPoint x="960" y="350" as="targetPoint" />
          </mxGeometry>
        </mxCell>
      </root>
    </mxGraphModel>
  </diagram>
</mxfile>
